<svg width="32" height="32" viewBox="0 0 32 32" fill="none" xmlns="http://www.w3.org/2000/svg">
  <rect width="32" height="32" rx="6" fill="url(#gradient)"/>
  <path d="M16 8C13.5 8 11.5 10 11.5 12.5C11.5 15 13.5 17 16 17C18.5 17 20.5 15 20.5 12.5C20.5 10 18.5 8 16 8ZM16 15C14.6 15 13.5 13.9 13.5 12.5C13.5 11.1 14.6 10 16 10C17.4 10 18.5 11.1 18.5 12.5C18.5 13.9 17.4 15 16 15Z" fill="white"/>
  <path d="M16 17C16 19.5 14 21.5 11.5 21.5C9 21.5 7 19.5 7 17C7 14.5 9 12.5 11.5 12.5C14 12.5 16 14.5 16 17ZM9 17C9 18.4 10.1 19.5 11.5 19.5C12.9 19.5 14 18.4 14 17C14 15.6 12.9 14.5 11.5 14.5C10.1 14.5 9 15.6 9 17Z" fill="white"/>
  <path d="M20.5 12.5C23 12.5 25 14.5 25 17C25 19.5 23 21.5 20.5 21.5C18 21.5 16 19.5 16 17C16 14.5 18 12.5 20.5 12.5ZM20.5 19.5C21.9 19.5 23 18.4 23 17C23 15.6 21.9 14.5 20.5 14.5C19.1 14.5 18 15.6 18 17C18 18.4 19.1 19.5 20.5 19.5Z" fill="white"/>
  <defs>
    <linearGradient id="gradient" x1="0" y1="0" x2="32" y2="32" gradientUnits="userSpaceOnUse">
      <stop stop-color="#2563EB"/>
      <stop offset="1" stop-color="#059669"/>
    </linearGradient>
  </defs>
</svg>